Patient4_TMGait_0pt2_01_left_17_GRF.mot
version=1
nRows=65
nColumns=19
inDegrees=no
endheader
time	F1x	F1y	F1z	M1x	M1y	M1z	F2x	F2y	F2z	M2x	M2y	M2z	EC1x	EC1y	EC1z	EC2x	EC2y	EC2z
38.98	-7.5231	28.4398	4.6021	-9.7408	-6.403	26.3107	-5.9801	759.241	-26.5877	283.3845	28.9769	708.1552	-0.0592	0.0182	-0.0073	-0.0462	0.0165	0.9585
39.0043	-7.2173	22.6994	3.8062	-7.73	-5.6651	20.9151	-6.9558	778.0348	-27.788	290.0908	30.5544	726.0678	-0.0592	0.0182	-0.0073	-0.0462	0.0165	0.9585
39.0286	-6.5071	16.6143	2.9367	-5.6144	-4.7193	15.2611	-8.4691	798.2369	-28.8531	297.289	32.0087	745.0886	-0.0592	0.0182	-0.0073	-0.0462	0.0165	0.9585
39.0529	-5.4635	10.9001	2.0823	-3.6411	-3.6628	10.003	-10.2981	817.505	-29.6503	304.0928	33.1155	762.9516	-0.0592	0.0182	-0.0073	-0.0462	0.0165	0.9585
39.0771	-4.3516	6.1487	1.35	-2.0095	-2.6775	5.6718	-12.097	833.2625	-30.1066	309.5247	33.6923	777.1813	-0.0592	0.0182	-0.0073	-0.0462	0.0165	0.9585
39.1014	-3.3607	2.5792	0.78958	-0.78996	-1.8734	2.4495	-13.4963	843.3183	-30.2063	312.7566	33.6245	785.6735	-0.0592	0.0182	-0.0073	-0.0462	0.0165	0.9585
39.1257	-2.5774	0.13762	0.40626	0.039617	-1.2894	0.26325	-14.2026	846.3462	-29.9793	313.2892	32.8857	787.1568	-0.0592	0.0182	-0.0073	-0.0462	0.0165	0.9585
39.15	-2.0248	-1.3784	0.17942	0.55098	-0.91775	-1.0905	-14.059	842.1573	-29.4823	311.056	31.5337	781.4548	-0.0592	0.0182	-0.0073	-0.0462	0.0165	0.9585
39.1743	-1.6886	-2.2305	0.074061	0.83538	-0.72113	-1.8568	-13.0378	831.763	-28.7745	306.4536	29.6763	769.5324	-0.0592	0.0182	-0.0073	-0.0462	0.0165	0.9585
39.1986	-1.5331	-2.6818	0.053221	0.98407	-0.65181	-2.2747	-11.2204	817.1062	-27.9114	300.2438	27.4497	753.2311	-0.0592	0.0182	-0.0073	-0.0462	0.0165	0.9585
39.2229	-1.5095	-2.9604	0.083917	1.0767	-0.66471	-2.5518	-8.7799	800.5252	-26.9349	293.3507	24.9969	734.7705	-0.0592	0.0182	-0.0073	-0.0462	0.0165	0.9585
39.2471	-1.565	-3.2461	0.13585	1.1756	-0.71901	-2.8578	-5.9109	784.214	-25.8794	286.6486	22.4452	716.2298	-0.0592	0.0182	-0.0073	-0.0462	0.0165	0.9585
39.2714	-1.6459	-3.6581	0.18287	1.3217	-0.77678	-3.3076	-2.7577	769.8552	-24.8006	280.8071	19.906	699.1877	-0.0592	0.0182	-0.0073	-0.0462	0.0165	0.9585
39.2957	-1.6994	-4.2384	0.2044	1.5296	-0.80333	-3.9418	0.58998	758.4628	-23.7918	276.2232	17.4907	684.5891	-0.0592	0.0182	-0.0073	-0.0462	0.0165	0.9585
39.32	-1.6726	-4.9368	0.1817	1.7809	-0.76251	-4.7112	4.0856	750.4231	-22.9765	273.0366	15.3148	672.8003	-0.0592	0.0182	-0.0073	-0.0462	0.0165	0.9585
39.3443	-1.5111	-5.5909	0.097066	2.0171	-0.61647	-5.4543	7.7127	745.6247	-22.4807	271.1864	13.48	663.7412	-0.0592	0.0182	-0.0073	-0.0462	0.0165	0.9585
39.3686	-1.1655	-5.9082	-0.060053	2.1287	-0.33237	-5.8768	11.4399	743.6115	-22.3946	270.477	12.0589	657.0413	-0.0592	0.0182	-0.0073	-0.0462	0.0165	0.9585
39.3929	-0.59498	-5.4377	-0.28934	1.9435	0.11025	-5.5222	15.1994	743.7107	-22.7468	270.6306	11.084	652.1629	-0.0592	0.0182	-0.0073	-0.0462	0.0165	0.9585
39.4171	0.22278	-3.5467	-0.5784	1.2254	0.71003	-3.7607	18.8915	745.0872	-23.5001	271.3094	10.5421	648.4574	-0.0592	0.0182	-0.0073	-0.0462	0.0165	0.9585
39.4414	1.2717	0.55282	-0.89378	-0.31655	1.4259	0.19508	22.3887	746.7921	-24.5579	272.132	10.3739	645.2094	-0.0592	0.0182	-0.0073	-0.0462	0.0165	0.9585
39.4657	2.4688	7.7285	-1.1707	-2.9984	2.1575	7.2274	25.5403	747.7778	-25.7804	272.6813	10.4935	641.6395	-0.0592	0.0182	-0.0073	-0.0462	0.0165	0.9585
39.49	3.6236	18.7739	-1.2996	-7.1044	2.7177	18.1595	28.1894	746.8891	-27.0037	272.5024	10.7988	636.8869	-0.0592	0.0182	-0.0073	-0.0462	0.0165	0.9585
39.5143	4.3956	34.1426	-1.1183	-12.7897	2.8118	33.4924	30.1956	742.9185	-28.0571	271.1208	11.1797	630.0531	-0.0592	0.0182	-0.0073	-0.0462	0.0165	0.9585
39.5386	4.362	53.6585	-0.44032	-19.9773	2.0882	53.1303	31.4371	734.7658	-28.7885	268.1005	11.5399	620.3292	-0.0592	0.0182	-0.0073	-0.0462	0.0165	0.9585
39.5629	3.355	76.5173	0.8976	-28.3541	0.30784	76.3623	31.8252	721.6706	-29.0998	263.1353	11.8217	607.1716	-0.0592	0.0182	-0.0073	-0.0462	0.0165	0.9585
39.5871	1.4748	101.4014	2.9475	-37.4218	-2.5538	101.9343	31.3599	703.4206	-28.9613	256.1356	11.998	590.4358	-0.0592	0.0182	-0.0073	-0.0462	0.0165	0.9585
39.6114	-1.0726	126.7929	5.4198	-46.6326	-6.1222	128.3556	30.1882	680.5307	-28.4055	247.302	12.044	570.4853	-0.0592	0.0182	-0.0073	-0.0462	0.0165	0.9585
39.6357	-4.0582	151.4938	7.8546	-55.5721	-9.8368	154.434	28.5699	654.3124	-27.5217	237.149	11.9478	548.2537	-0.0592	0.0182	-0.0073	-0.0462	0.0165	0.9585
39.66	-7.3352	175.0273	9.9285	-64.0829	-13.3086	179.6949	26.7882	626.5614	-26.4467	226.3805	11.7331	525.0346	-0.0592	0.0182	-0.0073	-0.0462	0.0165	0.9585
39.6843	-10.8084	197.4738	11.5268	-72.196	-16.3798	204.2071	25.077	598.9503	-25.3366	215.6577	11.4523	502.0237	-0.0592	0.0182	-0.0073	-0.0462	0.0165	0.9585
39.7086	-14.3423	219.0447	12.7341	-79.9795	-19.0781	228.1218	23.5675	572.5639	-24.3276	205.4223	11.1766	479.9708	-0.0592	0.0182	-0.0073	-0.0462	0.0165	0.9585
39.7329	-17.7444	239.8775	13.7171	-87.4705	-21.4919	251.4538	22.2636	547.7993	-23.5093	195.855	10.9846	459.1208	-0.0592	0.0182	-0.0073	-0.0462	0.0165	0.9585
39.7571	-20.8146	260.0014	14.61	-94.6722	-23.6738	274.0635	21.0848	524.5718	-22.91	186.9521	10.935	439.3807	-0.0592	0.0182	-0.0073	-0.0462	0.0165	0.9585
39.7814	-23.3778	279.4203	15.4839	-101.5844	-25.6242	295.7705	19.9503	502.6103	-22.5006	178.6336	11.0376	420.5316	-0.0592	0.0182	-0.0073	-0.0462	0.0165	0.9585
39.8057	-25.3006	298.1991	16.3914	-108.2321	-27.3418	316.4744	18.8399	481.6499	-22.2238	170.8105	11.2523	402.3752	-0.0592	0.0182	-0.0073	-0.0462	0.0165	0.9585
39.83	-26.5244	316.4801	17.3783	-114.6668	-28.8503	336.1988	17.7983	461.4717	-22.0238	163.4001	11.514	384.7619	-0.0592	0.0182	-0.0073	-0.0462	0.0165	0.9585
39.8543	-27.0696	334.4823	18.4644	-120.9674	-30.1829	355.1054	16.9123	441.8865	-21.8598	156.3225	11.7541	367.5632	-0.0592	0.0182	-0.0073	-0.0462	0.0165	0.9585
39.8786	-27.03	352.4758	19.653	-127.2307	-31.3847	373.4729	16.2639	422.7368	-21.7048	149.5032	11.9171	350.6802	-0.0592	0.0182	-0.0073	-0.0462	0.0165	0.9585
39.9029	-26.5779	370.6561	20.9293	-133.5256	-32.5079	391.5634	15.8782	403.8678	-21.5374	142.865	11.9734	334.023	-0.0592	0.0182	-0.0073	-0.0462	0.0165	0.9585
39.9271	-25.9154	388.9716	22.2375	-139.8361	-33.5698	409.4172	15.7173	385.0637	-21.3369	136.3088	11.921	317.4575	-0.0592	0.0182	-0.0073	-0.0462	0.0165	0.9585
39.9514	-25.1941	407.1006	23.4993	-146.054	-34.5455	426.7873	15.7117	366.0673	-21.0817	129.7221	11.771	300.8122	-0.0592	0.0182	-0.0073	-0.0462	0.0165	0.9585
39.9757	-24.4679	424.6439	24.6491	-152.0493	-35.3874	443.3101	15.7853	346.6833	-20.7577	123.0175	11.5411	283.959	-0.0592	0.0182	-0.0073	-0.0462	0.0165	0.9585
40	-23.7318	441.4025	25.6606	-157.7661	-36.0661	458.7926	15.8669	326.8501	-20.3504	116.1581	11.2446	266.8754	-0.0592	0.0182	-0.0073	-0.0462	0.0165	0.9585
40.0243	-22.9708	457.5372	26.575	-163.2743	-36.6146	473.3878	15.8942	306.5695	-19.8343	109.1314	10.8793	249.586	-0.0592	0.0182	-0.0073	-0.0462	0.0165	0.9585
40.0486	-22.1846	473.6064	27.5054	-168.7785	-37.1411	487.6337	15.8152	285.7144	-19.1717	101.8799	10.4273	232.0013	-0.0592	0.0182	-0.0073	-0.0462	0.0165	0.9585
40.0729	-21.3923	490.5031	28.6107	-174.602	-37.8038	502.386	15.5885	263.9124	-18.316	94.2585	9.8585	213.8246	-0.0592	0.0182	-0.0073	-0.0462	0.0165	0.9585
40.0971	-20.5883	509.3338	30.0449	-181.1547	-38.7484	518.6801	15.1674	240.679	-17.2288	86.086	9.1538	194.6602	-0.0592	0.0182	-0.0073	-0.0462	0.0165	0.9585
40.1214	-19.6856	531.2527	31.8941	-188.8758	-40.0234	537.5508	14.4838	215.7198	-15.895	77.2544	8.3247	174.2583	-0.0592	0.0182	-0.0073	-0.0462	0.0165	0.9585
40.1457	-18.5346	557.1781	34.153	-198.13	-41.5628	559.7737	13.4629	189.1754	-14.338	67.8166	7.4185	152.7117	-0.0592	0.0182	-0.0073	-0.0462	0.0165	0.9585
40.17	-17.0099	587.5764	36.734	-209.1172	-43.2268	585.7072	12.0537	161.686	-12.6257	58.0076	6.509	130.5086	-0.0592	0.0182	-0.0073	-0.0462	0.0165	0.9585
40.1943	-15.0947	622.3256	39.5043	-221.8066	-44.8675	615.2121	10.2605	134.2711	-10.8596	48.2001	5.6766	108.4325	-0.0592	0.0182	-0.0073	-0.0462	0.0165	0.9585
40.2186	-12.9216	660.6309	42.325	-235.8951	-46.3834	647.6078	8.1632	108.0765	-9.1443	38.8123	4.9771	87.3632	-0.0592	0.0182	-0.0073	-0.0462	0.0165	0.9585
40.2429	-10.7511	701.0304	45.085	-250.8078	-47.7508	681.6805	5.9059	84.089	-7.5501	30.2059	4.4186	68.0656	-0.0592	0.0182	-0.0073	-0.0462	0.0165	0.9585
40.2671	-8.8927	741.4701	47.7087	-265.7415	-49.0039	715.7144	3.6635	62.9533	-6.1002	22.619	3.9641	51.0487	-0.0592	0.0182	-0.0073	-0.0462	0.0165	0.9585
40.2914	-7.5916	779.4647	50.1276	-279.7408	-50.1694	747.5731	1.6339	44.9663	-4.7833	16.1632	3.5413	36.5539	-0.0592	0.0182	-0.0073	-0.0462	0.0165	0.9585
40.3157	-6.9415	812.3154	52.2648	-291.788	-51.2235	774.8565	0.030875	30.1841	-3.5752	10.8598	3.0593	24.6313	-0.0592	0.0182	-0.0073	-0.0462	0.0165	0.9585
40.34	-6.875	837.3766	54.0465	-300.904	-52.1001	795.1425	-0.96956	18.5323	-2.4724	6.6823	2.4573	15.2256	-0.0592	0.0182	-0.0073	-0.0462	0.0165	0.9585
40.3643	-7.2022	852.4801	55.4088	-306.3037	-52.71	806.3931	-1.3355	9.853	-1.5116	3.574	1.7575	8.2066	-0.0592	0.0182	-0.0073	-0.0462	0.0165	0.9585
40.3886	-7.6661	856.5364	56.2862	-307.6083	-52.9411	807.5373	-1.2553	3.8602	-0.74683	1.4311	1.0717	3.333	-0.0592	0.0182	-0.0073	-0.0462	0.0165	0.9585
40.4129	-8.0011	850.0534	56.6223	-305.0253	-52.682	798.9665	-0.94186	0.037024	-0.19079	0.066865	0.48466	0.1777	-0.0592	0.0182	-0.0073	-0.0462	0.0165	0.9585
40.4371	-7.9894	835.2009	56.4135	-299.3645	-51.8755	782.6004	-0.53984	-2.2469	0.18313	-0.74659	0.023344	-1.7807	-0.0592	0.0182	-0.0073	-0.0462	0.0165	0.9585
40.4614	-7.4897	815.364	55.7172	-291.8749	-50.534	761.4726	-0.13536	-3.6006	0.41552	-1.2285	-0.3161	-3.0409	-0.0592	0.0182	-0.0073	-0.0462	0.0165	0.9585
40.4857	-6.4103	794.4166	54.6151	-283.9877	-48.6971	739.0558	0.22866	-4.5244	0.54746	-1.5577	-0.55426	-4.0042	-0.0592	0.0182	-0.0073	-0.0462	0.0165	0.9585
40.51	-4.7049	775.8479	53.204	-276.997	-46.4235	718.4764	0.53288	-5.353	0.6155	-1.8543	-0.71851	-4.9299	-0.0592	0.0182	-0.0073	-0.0462	0.0165	0.9585
40.5343	-2.3877	762.0198	51.5926	-271.7847	-43.7991	701.8588	0.76739	-6.2192	0.64773	-2.1679	-0.83121	-5.8968	-0.0592	0.0182	-0.0073	-0.0462	0.0165	0.9585
